<svg width="178" height="28" viewBox="0 0 178 28" fill="none" xmlns="http://www.w3.org/2000/svg">
<path d="M82.512 27.5268C84.7879 27.5268 86.9763 27.5268 89.1698 27.5268C90.5601 25.236 91.971 22.9812 93.3149 20.6904C94.6691 18.3842 96.1212 16.1345 97.4188 13.7922C98.7112 11.4706 100.153 9.23123 101.512 6.94557C102.877 4.65477 104.303 2.40515 105.657 0.0371237C103.448 0.0371237 101.342 0.0371237 99.2776 0.0371237C98.9069 0.649721 98.5619 1.22114 98.2066 1.79255C97.4239 3.06922 96.631 4.34075 95.8483 5.61742C95.2201 6.64185 94.597 7.66627 93.9688 8.6907C93.1862 9.96737 92.3881 11.2338 91.6157 12.5156C91.214 13.1899 90.8691 13.8952 90.4777 14.5747C90.0915 15.2388 89.6641 15.8771 89.2677 16.5361C88.3975 17.9672 87.5375 19.4034 86.6673 20.8345C86.4099 21.2618 86.1473 21.6839 85.8538 22.1627C85.6735 21.8693 85.5345 21.6582 85.4006 21.4368C84.654 20.2065 83.9125 18.9762 83.1659 17.7458C82.7385 17.0406 82.3008 16.3353 81.8838 15.6249C81.4718 14.9299 81.0187 14.2659 80.684 13.5194C80.3184 12.7009 79.752 11.9699 79.2731 11.1977C78.6707 10.2248 78.0682 9.25697 77.4658 8.28402C76.8376 7.25959 76.2094 6.23517 75.5812 5.21074C74.7985 3.93407 74.0159 2.65739 73.228 1.38587C72.9397 0.922558 72.6513 0.459249 72.3887 0.0371237C70.2055 0.0371237 68.1201 0.0371237 66.0398 0.0371237C71.5391 9.20034 77.023 18.3584 82.512 27.5268ZM125.162 27.5268C127.438 27.5268 129.627 27.5268 131.82 27.5268C133.211 25.236 134.621 22.9812 135.965 20.6904C137.32 18.3842 138.772 16.1345 140.069 13.7922C141.362 11.4706 142.803 9.23123 144.163 6.94557C145.527 4.65477 146.954 2.40515 148.308 0.0371237C146.099 0.0371237 143.993 0.0371237 141.928 0.0371237C141.557 0.649721 141.212 1.22114 140.857 1.79255C140.074 3.06922 139.281 4.34075 138.499 5.61742C137.871 6.64185 137.248 7.66627 136.619 8.6907C135.837 9.96737 135.039 11.2338 134.266 12.5156C133.865 13.1899 133.52 13.8952 133.128 14.5747C132.742 15.2388 132.315 15.8771 131.918 16.5361C131.048 17.9672 130.188 19.4034 129.318 20.8345C129.06 21.2618 128.798 21.6839 128.504 22.1575C128.324 21.8641 128.185 21.6531 128.051 21.4317C127.304 20.2014 126.563 18.971 125.816 17.7407C125.389 17.0354 124.951 16.3301 124.534 15.6197C124.122 14.9248 123.669 14.2607 123.335 13.5143C122.969 12.6957 122.403 11.9648 121.924 11.1926C121.321 10.2196 120.719 9.25182 120.116 8.27887C119.488 7.25444 118.86 6.23002 118.232 5.20559C117.449 3.92892 116.666 2.65224 115.879 1.38072C115.59 0.91741 115.302 0.454102 115.039 0.0319758C112.856 0.0319758 110.771 0.0319758 108.69 0.0319758C114.19 9.20034 119.673 18.3584 125.162 27.5268ZM76.3639 27.5371C76.0343 26.9811 75.7357 26.456 75.4216 25.9412C74.6646 24.6954 73.9026 23.4548 73.1508 22.2039C72.502 21.1228 71.8635 20.0366 71.2147 18.9556C70.3394 17.5039 69.4485 16.0625 68.5732 14.6108C68.1973 13.9879 67.8729 13.3341 67.5022 12.706C66.7916 11.5014 66.0604 10.3071 65.3447 9.10768C64.6856 8.00603 64.0419 6.90439 63.3777 5.80789C62.4817 4.3253 61.5806 2.84272 60.6641 1.37042C60.3757 0.907115 60.1749 0.376884 59.7681 0.0371237C57.59 0.0371237 55.4583 0.0371237 53.3677 0.0371237C52.997 0.644573 52.6571 1.21599 52.3018 1.7874C51.5449 3.0126 50.7777 4.22749 50.0311 5.45784C49.0785 7.02279 48.1722 8.61863 47.1784 10.1527C46.1074 11.8052 45.1548 13.5246 44.1713 15.2285C43.5689 16.2684 42.9304 17.2877 42.3022 18.3121C41.6019 19.4549 40.9016 20.5977 40.2013 21.7354C39.5525 22.7907 38.8986 23.846 38.2498 24.9065C37.7194 25.7714 37.1994 26.6465 36.6741 27.5216C38.8883 27.5216 41.0767 27.5216 43.2857 27.5216C47.7139 20.1499 52.1319 12.7884 56.622 5.32399C61.1172 12.809 65.5506 20.1859 69.9635 27.5371C72.121 27.5371 74.2115 27.5371 76.3639 27.5371ZM138.082 27.5216C140.208 27.5216 142.355 27.5216 144.528 27.5216C148.952 20.155 153.375 12.7987 157.844 5.35488C162.458 12.7421 166.68 20.2374 171.253 27.5165C173.364 27.5165 175.465 27.5165 177.648 27.5165C171.963 18.379 166.706 9.06135 161.078 0.0268279C158.859 0.0268279 156.727 0.0268279 154.616 0.0268279C149.091 9.21579 143.586 18.3739 138.082 27.5216ZM6.35075 12.5722C7.03558 12.5722 7.72042 12.5619 8.40011 12.5773C9.1004 12.5928 9.78008 12.5259 10.4649 12.3508C10.8923 12.2427 11.2733 12.0111 11.5102 11.7279C12.2053 10.8837 12.71 9.93134 12.6997 8.77822C12.6894 7.33166 12.6791 5.87996 12.7048 4.43341C12.7203 3.71271 12.6533 3.00745 12.4525 2.31763C12.1538 1.28291 11.3918 0.665165 10.4752 0.284222C9.94486 0.0628631 9.33211 -0.00405931 8.72451 0.00623644C7.29819 0.0319758 5.86672 0.00623644 4.44041 0.0216801C3.92549 0.0268279 3.41057 0.109194 2.89566 0.134933C2.06664 0.170968 1.47449 0.696052 0.887487 1.16966C0.599134 1.39101 0.388018 1.78225 0.269588 2.1426C0.0739195 2.7655 -0.00846706 3.41413 0.00183126 4.07821C0.0275771 5.48358 0.00183126 6.89409 0.0172787 8.29946C0.0224279 8.81425 0.0687703 9.33419 0.140859 9.84383C0.243842 10.5954 0.722714 11.172 1.18614 11.7228C1.4127 11.9956 1.77829 12.2067 2.12328 12.3097C2.70514 12.4847 3.31274 12.5979 3.93579 12.5773C4.73906 12.5516 5.54233 12.5722 6.35075 12.5722ZM6.3147 27.429C7.04073 27.429 7.76161 27.4135 8.48765 27.4341C9.16733 27.4547 9.84702 27.4187 10.4855 27.1767C10.8614 27.0326 11.2991 26.8627 11.5308 26.5641C12.2362 25.6735 12.7306 24.68 12.7048 23.4857C12.6739 22.1164 12.6945 20.7522 12.6997 19.3828C12.6997 18.6467 12.6945 17.9208 12.4628 17.2001C12.1333 16.1551 11.3918 15.5116 10.4443 15.1307C9.86762 14.899 9.21883 14.8476 8.57518 14.8579C7.06648 14.8836 5.55777 14.8733 4.04907 14.863C3.01409 14.8579 2.07694 15.0792 1.23248 15.733C0.722714 16.1294 0.413764 16.5927 0.233543 17.2001C0.0790686 17.7201 0.00698042 18.24 0.00698042 18.7805C0.0172787 20.2683 0.0224279 21.756 0.00698042 23.2437C-0.00846706 24.3608 0.212947 25.375 0.933829 26.2861C1.25823 26.7031 1.65986 26.9914 2.09239 27.151C2.6176 27.3466 3.20976 27.3878 3.78131 27.4135C4.62578 27.4599 5.47024 27.429 6.3147 27.429ZM21.5665 12.5722C22.514 12.4744 23.7137 12.6803 24.9186 12.4692C25.6807 12.3354 26.2162 11.9905 26.6487 11.3779C27.2821 10.4719 27.6013 9.49377 27.5704 8.38183C27.5344 6.97131 27.5653 5.56594 27.5601 4.15542C27.5601 3.62005 27.4932 3.10526 27.3593 2.56988C27.1379 1.68444 26.6848 1.04611 25.9278 0.587946C25.7631 0.484989 25.6189 0.309961 25.4438 0.26363C24.8259 0.114342 24.208 -0.00920719 23.5592 0.00108857C22.1535 0.0268279 20.7426 0.00108857 19.3318 0.0165322C18.7963 0.0216801 18.2607 0.0680109 17.7252 0.140081C16.9683 0.237891 16.3504 0.680608 15.8509 1.1851C15.197 1.84403 14.9086 2.73976 14.8829 3.66123C14.8417 5.27251 14.8623 6.8838 14.8778 8.48993C14.8829 8.86573 14.9292 9.24152 15.0013 9.61217C15.1507 10.4101 15.6141 11.0639 16.1084 11.6662C16.3453 11.9545 16.7212 12.2016 17.0816 12.3045C17.6429 12.4641 18.2299 12.5979 18.8375 12.5773C19.6665 12.5516 20.4903 12.5722 21.5665 12.5722ZM21.3348 27.429C22.102 27.429 22.8641 27.4187 23.6313 27.4341C24.2338 27.4496 24.8156 27.3672 25.3923 27.2076C25.588 27.1561 25.7425 27.0686 25.9176 26.976C26.4273 26.7031 26.6487 26.2038 26.9371 25.7662C27.3439 25.1485 27.5498 24.4484 27.555 23.7019C27.5653 22.1524 27.5601 20.6029 27.555 19.0534C27.555 18.4974 27.4983 17.962 27.349 17.4112C27.1276 16.5772 26.6899 15.9647 26.0102 15.4859C25.8197 15.3521 25.6292 15.1873 25.4129 15.1255C24.7847 14.9454 24.1411 14.8527 23.4768 14.8682C22.1278 14.8939 20.7787 14.863 19.4296 14.8836C18.8735 14.8887 18.3174 14.9454 17.7664 15.002C16.9838 15.0895 16.3453 15.5425 15.8355 16.0676C15.1764 16.7471 14.8932 17.6583 14.8778 18.6107C14.852 20.2631 14.8726 21.9104 14.8675 23.5629C14.8675 24.7366 15.403 25.6941 16.1187 26.5538C16.3556 26.8421 16.7417 27.0686 17.1022 27.1819C17.684 27.3672 18.2916 27.4753 18.9147 27.4496C19.7231 27.4084 20.5315 27.429 21.3348 27.429Z" fill="#404040"/>
<path d="M82.512 27.5263C77.023 18.3631 71.5392 9.205 66.0502 0.0314941C68.1304 0.0314941 70.2158 0.0314941 72.3991 0.0314941C72.6617 0.448472 72.95 0.91178 73.2384 1.38024C74.0262 2.65691 74.8089 3.93358 75.5916 5.2051C76.2198 6.22953 76.8428 7.25396 77.4762 8.27838C78.0735 9.25133 78.6811 10.2243 79.2835 11.1921C79.7624 11.9643 80.3236 12.6953 80.6944 13.5138C81.0291 14.2654 81.4822 14.9243 81.8941 15.6192C82.3164 16.3297 82.7489 17.0349 83.1763 17.7402C83.9229 18.9705 84.6644 20.2009 85.411 21.4312C85.5449 21.6474 85.6788 21.8636 85.8641 22.157C86.1576 21.6834 86.4202 21.2562 86.6777 20.8289C87.5428 19.3978 88.4078 17.9615 89.278 16.5304C89.6745 15.8715 90.1019 15.2332 90.4881 14.5691C90.8846 13.8896 91.2244 13.1843 91.626 12.5099C92.3984 11.2281 93.1965 9.95659 93.9792 8.68507C94.6074 7.66064 95.2305 6.63621 95.8587 5.61179C96.6413 4.33511 97.4343 3.06359 98.217 1.78692C98.5671 1.2155 98.9121 0.644091 99.288 0.0314941C101.353 0.0314941 103.459 0.0314941 105.668 0.0314941C104.314 2.39951 102.882 4.64913 101.523 6.93994C100.163 9.22559 98.7216 11.4649 97.4291 13.7866C96.1264 16.1289 94.6743 18.3785 93.3253 20.6848C91.9813 22.9807 90.5705 25.2355 89.1802 27.5211C86.9764 27.5263 84.788 27.5263 82.512 27.5263Z" fill="#404040"/>
<path d="M125.162 27.5263C119.673 18.3631 114.189 9.205 108.7 0.0314941C110.781 0.0314941 112.866 0.0314941 115.049 0.0314941C115.312 0.448472 115.6 0.91178 115.889 1.38024C116.676 2.65691 117.459 3.93358 118.242 5.2051C118.87 6.22953 119.493 7.25396 120.126 8.27838C120.724 9.25133 121.331 10.2243 121.934 11.1921C122.413 11.9643 122.974 12.6953 123.345 13.5138C123.679 14.2654 124.132 14.9243 124.544 15.6192C124.967 16.3297 125.399 17.0349 125.827 17.7402C126.573 18.9705 127.315 20.2009 128.061 21.4312C128.195 21.6474 128.329 21.8636 128.514 22.157C128.808 21.6834 129.071 21.2562 129.328 20.834C130.193 19.4029 131.058 17.9667 131.928 16.5356C132.325 15.8766 132.752 15.2383 133.138 14.5742C133.535 13.8947 133.875 13.1895 134.276 12.5151C135.049 11.2333 135.847 9.96174 136.629 8.69021C137.258 7.66579 137.881 6.64136 138.509 5.61693C139.292 4.34026 140.085 3.06874 140.867 1.79207C141.217 1.22065 141.562 0.649239 141.938 0.036642C144.003 0.036642 146.109 0.036642 148.318 0.036642C146.964 2.40466 145.532 4.65428 144.173 6.94509C142.814 9.23074 141.372 11.4701 140.079 13.7918C138.777 16.134 137.325 18.3837 135.976 20.6899C134.632 22.9859 133.221 25.2406 131.83 27.5263C129.627 27.5263 127.438 27.5263 125.162 27.5263Z" fill="#404040"/>
<path d="M76.3638 27.5373C74.2115 27.5373 72.1209 27.5373 69.9583 27.5373C65.5403 20.181 61.112 12.8092 56.6168 5.32422C52.1319 12.7938 47.7087 20.1501 43.2805 27.5218C41.0715 27.5218 38.8831 27.5218 36.6689 27.5218C37.1942 26.6467 37.7142 25.7767 38.2446 24.9067C38.8934 23.8463 39.5473 22.7909 40.1961 21.7356C40.8964 20.5928 41.6018 19.4551 42.297 18.3123C42.9252 17.2879 43.5637 16.2686 44.1661 15.2287C45.1548 13.5248 46.1074 11.8054 47.1732 10.1529C48.167 8.61371 49.0733 7.01787 50.0259 5.45806C50.7725 4.23287 51.5397 3.01282 52.2966 1.78763C52.6468 1.21622 52.9918 0.644802 53.3625 0.0373535C55.4531 0.0373535 57.5848 0.0373535 59.7629 0.0373535C60.1749 0.377113 60.3705 0.907344 60.6589 1.37065C61.5754 2.84294 62.4714 4.32553 63.3725 5.80812C64.0367 6.90461 64.6804 8.01141 65.3395 9.1079C66.0552 10.3074 66.7864 11.5017 67.497 12.7063C67.8677 13.3343 68.1921 13.9881 68.568 14.611C69.4382 16.0627 70.3341 17.5041 71.2095 18.9558C71.8634 20.0368 72.4968 21.123 73.1456 22.2041C73.8974 23.455 74.6646 24.6957 75.4164 25.9414C75.7356 26.4562 76.0343 26.9813 76.3638 27.5373Z" fill="#404040"/>
<path d="M138.082 27.5214C143.586 18.3736 149.091 9.2104 154.616 0.0266113C156.727 0.0266113 158.859 0.0266113 161.078 0.0266113C166.706 9.06112 171.963 18.3736 177.648 27.5162C175.465 27.5162 173.364 27.5162 171.253 27.5162C166.685 20.2371 162.463 12.7418 157.844 5.35465C153.375 12.7985 148.952 20.1548 144.528 27.5214C142.355 27.5214 140.208 27.5214 138.082 27.5214Z" fill="#404040"/>
<path d="M6.35065 12.5722C5.54738 12.5722 4.73896 12.5516 3.93569 12.5773C3.3075 12.5979 2.70504 12.4846 2.12319 12.3096C1.7782 12.2067 1.41261 11.9904 1.18604 11.7228C0.722618 11.1719 0.243746 10.5954 0.140763 9.84377C0.0686748 9.33413 0.0223323 8.81419 0.0171832 8.29941C0.00173568 6.89403 0.0326306 5.48351 0.00173568 4.07814C-0.0137118 3.41406 0.0738239 2.76542 0.269492 2.14253C0.382774 1.78218 0.599038 1.39094 0.887391 1.15928C1.4744 0.685677 2.06655 0.16574 2.89556 0.124557C3.41048 0.0988177 3.9254 0.0164514 4.44031 0.0113035C5.86663 0.00100777 7.2981 0.0267472 8.72441 0.00100777C9.33201 -0.00928801 9.94476 0.0576346 10.4751 0.278994C11.3917 0.659938 12.1538 1.27768 12.4524 2.31241C12.6532 3.00737 12.7202 3.70749 12.7047 4.42819C12.679 5.87475 12.6893 7.32645 12.6996 8.77301C12.7099 9.92099 12.2001 10.8785 11.5101 11.7228C11.2784 12.0059 10.8922 12.2375 10.4648 12.3456C9.77999 12.5207 9.1003 12.5876 8.40001 12.5722C7.71518 12.5619 7.03549 12.5722 6.35065 12.5722Z" fill="#404040"/>
<path d="M6.31469 27.4285C5.47023 27.4285 4.62577 27.4594 3.78131 27.4182C3.2149 27.3925 2.6176 27.3513 2.09238 27.1557C1.65985 26.9909 1.25822 26.7027 0.933821 26.2908C0.212939 25.3797 -0.00847518 24.3655 0.0069723 23.2484C0.0224198 21.7607 0.0172706 20.273 0.0069723 18.7852C0.00182314 18.2447 0.0739114 17.7248 0.233535 17.2048C0.413756 16.6025 0.722706 16.1341 1.23247 15.7377C2.07693 15.0788 3.01923 14.8626 4.04906 14.8677C5.55777 14.878 7.06647 14.8883 8.57518 14.8626C9.21882 14.8523 9.86761 14.9037 10.4443 15.1354C11.3918 15.5163 12.1281 16.1598 12.4628 17.2048C12.6894 17.9255 12.6997 18.6514 12.6997 19.3875C12.6945 20.7569 12.6739 22.1211 12.7048 23.4904C12.7305 24.6898 12.2362 25.6782 11.5308 26.5688C11.2939 26.8674 10.8614 27.0424 10.4855 27.1814C9.84702 27.4234 9.17248 27.4543 8.48764 27.4388C7.76676 27.4131 7.04073 27.4285 6.31469 27.4285Z" fill="#404040"/>
<path d="M21.5666 12.5722C20.4904 12.5722 19.6614 12.5516 18.8375 12.5774C18.2299 12.598 17.6481 12.4641 17.0817 12.3045C16.7212 12.2016 16.3453 11.9545 16.1085 11.6662C15.6142 11.0588 15.1507 10.4101 15.0014 9.6122C14.9293 9.24155 14.883 8.86576 14.8778 8.48996C14.8624 6.87867 14.8418 5.26738 14.883 3.66124C14.9087 2.73977 15.1971 1.84403 15.851 1.1851C16.3556 0.68061 16.9684 0.237892 17.7253 0.140082C18.2557 0.073159 18.7963 0.0216801 19.3319 0.0165322C20.7427 0.00108857 22.1536 0.026828 23.5593 0.00108857C24.203 -0.00920721 24.8209 0.114342 25.4388 0.263631C25.6138 0.304814 25.758 0.48499 25.9228 0.587948C26.6797 1.04611 27.138 1.68445 27.3543 2.56989C27.4881 3.10527 27.5551 3.61491 27.5551 4.15544C27.5551 5.56596 27.5293 6.97648 27.5654 8.38185C27.5963 9.49895 27.277 10.477 26.6437 11.3779C26.2111 11.9905 25.6756 12.3406 24.9136 12.4693C23.7138 12.6803 22.514 12.4744 21.5666 12.5722Z" fill="#404040"/>
<path d="M21.3348 27.4291C20.5316 27.4291 19.7231 27.4085 18.9199 27.4342C18.2917 27.4548 17.6841 27.3467 17.1074 27.1665C16.7469 27.0533 16.3659 26.8268 16.1239 26.5385C15.4081 25.6788 14.8726 24.7213 14.8726 23.5476C14.8726 21.8951 14.852 20.2478 14.8829 18.5953C14.8984 17.6481 15.1816 16.7318 15.8407 16.0523C16.3504 15.5272 16.9838 15.0742 17.7716 14.9867C18.3226 14.9249 18.8838 14.8734 19.4348 14.8683C20.7839 14.8528 22.1329 14.8786 23.482 14.8528C24.1463 14.8425 24.7899 14.9352 25.4181 15.1102C25.6344 15.172 25.8249 15.3367 26.0154 15.4706C26.6951 15.9493 27.1328 16.5619 27.3542 17.3959C27.5035 17.9518 27.555 18.4821 27.5602 19.038C27.5602 20.5875 27.5653 22.1371 27.5602 23.6866C27.555 24.433 27.349 25.1331 26.9423 25.7509C26.6539 26.1884 26.4376 26.6878 25.9227 26.9606C25.7477 27.0533 25.5932 27.1408 25.3975 27.1923C24.8157 27.3518 24.2338 27.4342 23.6365 27.4188C22.8693 27.4188 22.1021 27.4291 21.3348 27.4291Z" fill="#404040"/>
</svg>
