<svg width="178" height="64" viewBox="0 0 178 64" fill="none" xmlns="http://www.w3.org/2000/svg">
<path d="M80.0677 19.072C80.0677 15.9448 80.0677 12.87 80.0677 9.75233C79.4039 9.61865 78.85 9.69504 78.2769 9.78098C75.7745 10.1534 73.3437 10.8075 70.9272 11.5141C70.8652 11.5332 70.7935 11.5236 70.6646 11.5332C70.5977 11.4043 70.4592 11.2515 70.4592 11.0987C70.4449 8.77835 70.4497 6.45321 70.4497 4.12807C71.1899 3.44532 72.0925 3.12544 72.9473 2.77213C75.4545 1.74563 78.0763 1.1345 80.7506 0.666611C84.7765 -0.0352284 88.831 -0.10207 92.8807 0.0984553C96.7728 0.289432 100.622 0.905332 104.318 2.22785C105.335 2.5907 106.324 3.0395 107.332 3.44055C108.1 3.74611 108.44 4.30472 108.43 5.13069C108.411 6.87336 108.425 8.62079 108.425 10.3635C108.425 10.8075 108.349 11.2181 107.991 11.5618C104.982 10.7406 102.007 9.76665 98.8645 9.64252C98.5015 10.5019 98.6973 11.2706 98.6639 12.0202C98.6305 12.8175 98.6544 13.6196 98.6544 14.4169C98.6544 15.1808 98.6544 15.9448 98.6544 16.7039C98.6544 17.463 98.6544 18.2221 98.6544 18.9049C98.0001 19.6115 97.1787 19.5399 96.4624 19.6927C94.5569 20.0937 92.6276 20.3133 90.6696 20.4232C88.4202 20.5473 86.2139 20.3611 84.0124 19.9696C82.8806 19.7643 81.7535 19.5208 80.6265 19.2916C80.488 19.2582 80.359 19.1866 80.0677 19.072Z" fill="#404040"/>
<path d="M63.1192 45.8707C62.0208 45.8707 60.9415 45.8707 59.7762 45.8707C59.7762 42.5333 59.7762 39.2438 59.7762 35.7632C57.6177 38.1695 55.5976 40.4278 53.5154 42.7434C52.226 41.7169 51.3473 40.4183 50.2823 39.3011C49.2365 38.203 48.2766 37.0237 47.1543 35.7346C47.1543 39.2104 47.1543 42.4761 47.1543 45.7608C46.6051 46.0282 46.0559 45.885 45.5258 45.9089C44.991 45.9327 44.4513 45.9136 43.8591 45.9136C43.8591 41.0819 43.8591 36.3409 43.8591 31.5426C45.2011 31.5426 46.5 31.5426 47.8706 31.5426C49.6663 33.5813 51.5097 35.6725 53.4008 37.8162C55.4352 35.811 57.1306 33.5049 59.1363 31.5283C60.4544 31.5283 61.7199 31.5283 63.0332 31.5283C63.1048 31.7479 63.2242 31.9437 63.2242 32.1394C63.229 36.6465 63.2195 41.1535 63.2099 45.6606C63.2099 45.694 63.186 45.7274 63.1192 45.8707Z" fill="#404040"/>
<path d="M11.0795 34.7701C11.0795 38.5276 11.0795 42.1466 11.0795 45.8324C9.919 45.9756 8.81106 45.9088 7.5885 45.8754C7.57895 43.9895 7.58373 42.1513 7.58373 40.3132C7.58373 38.5037 7.58373 36.6942 7.58373 34.7844C5.02878 34.7844 2.54546 34.7844 6.10352e-05 34.7844C6.10352e-05 33.6529 6.10352e-05 32.6216 6.10352e-05 31.5474C6.24656 31.5474 12.4405 31.5474 18.6822 31.5474C18.6822 32.6025 18.6822 33.6099 18.6822 34.6794C17.8704 34.8751 17.0394 34.7414 16.2228 34.7653C15.3871 34.7892 14.5513 34.7701 13.7156 34.7701C12.8847 34.7701 12.0537 34.7701 11.0795 34.7701Z" fill="#404040"/>
<path d="M81.572 34.7705C81.572 38.5279 81.572 42.1517 81.572 45.8757C80.4067 45.9569 79.2988 45.8901 78.1001 45.9235C78.1001 42.1803 78.1001 38.5279 78.1001 34.7752C75.5165 34.7752 73.0284 34.7752 70.4878 34.7752C70.4878 33.6724 70.4878 32.665 70.4878 31.6576C70.5117 31.6337 70.5355 31.605 70.5642 31.5859C70.5929 31.5621 70.6215 31.5286 70.6502 31.5286C76.5003 31.5143 82.3504 31.5048 88.2053 31.5C88.425 31.5 88.6399 31.5048 88.8548 31.5286C88.9216 31.5334 88.9789 31.5955 89.1604 31.6957C89.318 32.6172 89.1843 33.6198 89.2368 34.6607C88.3724 34.8946 87.5415 34.7418 86.7201 34.7705C85.8843 34.7991 85.0486 34.7752 84.2129 34.7752C83.3819 34.7705 82.551 34.7705 81.572 34.7705Z" fill="#404040"/>
<path d="M121.41 31.5383C122.556 31.5383 123.636 31.5383 124.82 31.5383C124.82 35.3053 124.82 39.0294 124.82 42.8489C125.823 42.8489 126.721 42.8489 127.618 42.8489C128.526 42.8489 129.433 42.8489 130.345 42.8489C131.219 42.8489 132.088 42.8298 132.962 42.8537C133.851 42.8823 134.758 42.7295 135.675 42.9683C135.675 43.9566 135.675 44.8589 135.675 45.7517C135.646 45.7804 135.627 45.809 135.598 45.8329C135.57 45.852 135.536 45.8807 135.508 45.8807C131.038 45.895 126.568 45.9093 122.103 45.9189C121.888 45.9189 121.673 45.895 121.472 45.8807C121.291 45.0642 121.238 33.0423 121.41 31.5383Z" fill="#404040"/>
<path d="M115.851 45.8712C114.629 45.8712 113.478 45.8712 112.274 45.8712C112.055 45.0881 112.203 44.2908 112.174 43.5078C112.146 42.7105 112.169 41.9084 112.169 41.1111C112.169 40.3137 112.169 39.5116 112.169 38.7143C112.169 37.917 112.169 37.1149 112.169 36.3175C112.169 35.5202 112.15 34.7181 112.174 33.9208C112.198 33.1425 112.05 32.3452 112.313 31.5383C113.497 31.5383 114.614 31.5383 115.727 31.5383C115.961 32.3357 116.057 42.6102 115.851 45.8712Z" fill="#404040"/>
<path d="M74.2035 58.7617C73.9265 58.2509 73.7785 57.9787 73.6304 57.7114C73.1863 57.7114 72.7899 57.7114 72.3028 57.7114C72.2789 58.0169 72.2503 58.3177 72.2168 58.6949C72.661 58.7331 73.0478 58.7617 73.4729 58.7952C73.554 58.9288 73.6352 59.0721 73.7976 59.3442C73.2341 59.3967 72.7899 59.4397 72.2885 59.4875C72.2885 59.8742 72.2885 60.2514 72.2885 60.6763C72.7852 60.6763 73.2484 60.6763 73.7689 60.6763C73.9313 60.4901 74.1319 60.2609 74.3659 59.984C74.4757 60.132 74.5904 60.2179 74.5808 60.28C74.5235 60.6285 74.428 60.9723 74.342 61.3447C73.0526 61.3447 71.8014 61.3447 70.3687 61.3447C70.6409 61.1394 70.7603 61.0248 70.9035 60.9389C71.0229 60.872 71.1614 60.8434 71.3047 60.7909C71.3047 59.7787 71.3047 58.8047 71.3047 57.7925C71.0516 57.6445 70.7889 57.4917 70.4928 57.3198C71.1375 56.957 72.2455 56.8949 74.3038 57.0811C74.4423 57.5538 74.4519 58.0217 74.2035 58.7617Z" fill="#404040"/>
<path d="M79.7573 58.7281C79.0314 58.7185 79.3275 58.0501 79.0219 57.7207C78.5395 57.6729 78.0142 57.4676 77.5462 57.9164C77.5939 58.4846 78.0285 58.5848 78.4297 58.7424C79.0314 58.9763 79.6809 59.1482 80.0248 59.7784C80.0868 60.9147 79.7143 61.4447 78.6637 61.5831C77.9855 61.6738 77.2883 61.6738 76.6531 61.163C76.6483 60.6426 76.2567 60.0124 77.0591 59.6304C77.5653 61.0723 77.9903 61.2489 79.1508 60.5375C79.2177 59.9837 78.8308 59.8118 78.4106 59.64C77.8184 59.3965 77.1546 59.2437 76.7868 58.5944C76.7868 58.2936 76.7868 57.9689 76.7868 57.692C77.1307 57.057 77.7515 57.0284 78.3055 56.8374C78.7974 56.952 79.3132 57.0666 79.8481 57.1907C79.8719 57.7732 79.9865 58.2602 79.7573 58.7281Z" fill="#404040"/>
<path d="M84.705 57.7494C84.705 58.7568 84.705 59.726 84.705 60.7239C84.9868 60.8623 85.2542 60.996 85.5885 61.1679C84.7098 61.4878 83.6544 61.4782 82.8473 61.1536C83.153 61.0056 83.387 60.891 83.6831 60.743C83.8311 59.7738 83.7356 58.7759 83.7451 57.7351C83.3106 57.7351 82.9572 57.7351 82.6086 57.7351C82.322 58.0168 82.642 58.6852 81.9209 58.7186C81.7155 58.2077 81.8206 57.6826 81.8397 57.1669C82.6468 56.9807 85.2256 56.9473 86.5675 57.1096C86.5818 57.3722 86.6105 57.6539 86.6152 57.9356C86.62 58.1839 86.5914 58.4321 86.577 58.7138C85.8273 58.7329 86.047 58.1218 85.8416 57.7494C85.5073 57.7494 85.1253 57.7494 84.705 57.7494Z" fill="#404040"/>
<path d="M107.986 60.7481C108 60.9773 108.01 61.1157 108.019 61.2351C107.752 61.4642 106.047 61.4881 104.719 61.2876C104.824 61.0918 104.877 60.8913 105.011 60.7672C105.292 60.495 105.612 60.2516 105.923 60.0081C106.544 59.5306 106.902 59.1152 107.274 58.4182C107.155 58.2033 107.016 57.9598 106.83 57.6256C106.257 57.7164 105.703 57.7975 104.968 57.9121C104.939 57.8835 104.82 57.7593 104.71 57.6447C105.154 57.0002 105.808 57.0718 106.262 56.8044C106.969 56.9334 107.58 57.1196 107.991 57.8405C107.991 58.1699 107.991 58.5996 107.991 59.12C107.47 59.5831 106.907 60.0844 106.252 60.6717C106.859 60.6956 107.37 60.7194 107.986 60.7481Z" fill="#404040"/>
<path d="M92.5704 57.8112C92.5704 58.7757 92.5704 59.7497 92.5704 60.738C92.8473 60.8621 93.1005 60.9719 93.4061 61.1056C93.2963 61.2297 93.2342 61.3586 93.1673 61.3634C92.408 61.3777 91.6535 61.373 90.6506 61.373C91.0661 61.0483 91.3144 60.8573 91.5914 60.6425C91.5914 59.7258 91.5914 58.7852 91.5914 57.8017C91.343 57.6585 91.0756 57.5105 90.684 57.2861C91.6391 56.842 92.4796 57.0616 93.3583 57.0855C93.0432 57.5152 92.9715 57.5773 92.5704 57.8112Z" fill="#404040"/>
<path d="M88.7164 61.0822C88.4968 61.2971 88.2819 61.5072 88.0622 61.722C87.4366 61.5549 87.1787 61.2875 87.2647 60.8244C87.3029 60.6239 87.5082 60.3661 87.6945 60.304C88.1338 60.1512 88.449 60.3565 88.7164 61.0822Z" fill="#404040"/>
<path d="M174.147 41.1442C174.62 40.8578 175.036 40.6382 175.413 40.366C176.597 39.5162 177.075 38.2605 177.161 36.895C177.275 35.0855 176.616 33.5672 175.069 32.5169C173.985 31.7816 172.753 31.5095 171.473 31.4999C168.058 31.4713 164.639 31.4904 161.225 31.4904C160.976 31.4904 160.733 31.4904 160.417 31.4904C160.217 34.1306 160.303 45.0879 160.532 45.9234C161.626 45.8518 162.738 46.0142 163.87 45.828C163.97 44.3001 163.822 42.8248 163.956 41.3686C166.081 41.3686 168.111 41.3686 170.126 41.3686C171.291 42.8869 172.438 44.3718 173.622 45.9139C174.257 45.9139 174.907 45.9234 175.556 45.9091C176.22 45.8996 176.888 45.9616 177.648 45.8518C176.435 44.2142 175.298 42.6912 174.147 41.1442ZM173.488 37.0812C173.006 38.1173 172.223 38.4706 171.182 38.4562C168.971 38.4324 166.759 38.4467 164.548 38.4467C164.372 38.4467 164.195 38.4324 163.947 38.4181C163.947 37.0812 163.947 35.859 163.947 34.5269C164.262 34.5269 164.544 34.5269 164.821 34.5269C167.07 34.5269 169.314 34.5174 171.564 34.5317C172.705 34.5412 173.412 35.1571 173.488 36.1645C173.512 36.494 173.488 36.8186 173.488 37.0812Z" fill="#404040"/>
<path d="M39.7712 36.6991C39.0358 33.9968 37.073 32.4881 34.5133 31.7099C32.8896 31.2181 31.2181 31.0796 29.5037 31.2038C28.2955 31.2945 27.1445 31.5046 26.0175 31.9152C24.814 32.3544 23.6584 32.9273 22.8131 33.8965C21.3756 35.5485 20.7691 37.4583 21.0748 39.7022C21.3517 41.7313 22.3928 43.2066 23.964 44.3477C25.8981 45.7514 28.1188 46.3148 30.5018 46.4007C31.3232 46.3005 32.1589 46.2623 32.9708 46.0952C34.9097 45.6893 36.6862 44.9636 38.1045 43.4931C39.9909 41.5404 40.4637 39.2439 39.7712 36.6991ZM35.3347 41.5404C34.4942 42.6528 33.2143 43.1302 31.8294 43.2544C31.433 43.2878 31.0319 43.2592 30.6307 43.2592C29.4989 43.3212 28.4196 43.1589 27.3594 42.6862C24.4607 41.3924 24.2075 37.9834 25.7501 36.0164C26.3088 35.3002 27.0777 34.8801 27.8943 34.5888C29.6852 33.9491 31.5094 33.9491 33.3098 34.5745C36.6432 35.7347 36.8868 39.4826 35.3347 41.5404Z" fill="#404040"/>
<path d="M156.005 35.8443C155.035 33.6529 153.249 32.359 150.99 31.6954C149.357 31.2131 147.691 31.1081 145.981 31.2084C144.204 31.3134 142.571 31.7765 141.029 32.6216C138.502 34.0014 137.447 36.2597 137.509 39.005C137.561 41.2633 138.655 43.0776 140.532 44.381C142.495 45.7464 144.701 46.3242 147.624 46.3623C148.459 46.4053 149.82 46.1523 151.105 45.6701C154.061 44.5576 156.244 42.7672 156.535 39.3105C156.635 38.0835 156.482 36.9233 156.005 35.8443ZM152.156 41.1153C151.296 42.4855 149.968 43.0489 148.44 43.2447C148.01 43.302 147.571 43.2542 147.38 43.2542C145.799 43.3592 144.553 43.0871 143.388 42.4091C142.509 41.8935 141.869 41.2012 141.597 40.1986C140.995 38.0071 141.573 36.0448 143.564 34.9945C145.112 34.1781 146.759 33.9011 148.493 34.2688C148.951 34.3643 149.419 34.4311 149.859 34.5743C151.74 35.1998 152.767 36.9377 152.748 38.6183C152.743 39.5111 152.633 40.3514 152.156 41.1153Z" fill="#404040"/>
<path d="M100.555 31.533C99.1321 31.533 97.7997 31.533 96.4244 31.533C93.8217 36.3026 91.2285 41.0484 88.5972 45.8658C89.9057 45.8658 91.09 45.8658 92.3365 45.8658C92.9334 44.782 93.5256 43.7125 94.1082 42.6574C97.0738 42.6574 99.9726 42.6574 102.881 42.6574C103.487 43.7555 104.08 44.825 104.657 45.8753C105.913 45.8753 107.107 45.8753 108.454 45.8753C105.77 41.0006 103.153 36.2501 100.555 31.533ZM95.8608 39.6925C96.0948 38.8569 97.5896 36.0018 98.5208 34.6077C99.433 36.2835 100.34 37.9402 101.3 39.6925C99.39 39.6925 97.6326 39.6925 95.8608 39.6925Z" fill="#404040"/>
<path d="M103.631 58.3322C103.253 57.4346 102.403 57.0909 101.085 57.3057C101.348 56.1456 102.532 55.8304 103.378 54.9329C103 54.9138 102.79 54.8421 102.633 54.9042C101.62 55.3005 100.827 55.9737 100.297 56.9286C99.3135 58.7046 99.5761 60.2754 101.052 61.3879C101.52 61.3879 102.026 61.3879 102.561 61.3879C103.803 60.4043 104.113 59.4781 103.631 58.3322ZM102.633 60.5189C102.446 60.6287 102.203 60.7767 101.868 60.9725C101.568 60.7481 101.157 60.5858 100.975 60.2802C100.56 59.5736 100.393 58.8049 101.037 57.9312C101.424 57.9312 101.811 57.9312 102.25 57.9312C103.043 58.6473 103.096 59.502 102.633 60.5189Z" fill="#404040"/>
<path d="M98.6734 59.4399C98.5779 57.8119 98.258 57.3058 96.6534 56.8474C95.4309 57.2007 95.3879 57.2485 95.0441 57.788C94.6716 58.3752 94.5761 59.0102 94.7194 59.6596C94.9772 60.8484 95.9562 61.3258 97.4366 61.0298C97.0402 62.1375 96.0469 62.6197 95.1587 63.2022C95.259 63.3359 95.3258 63.4218 95.4357 63.5651C97.3315 63.1879 98.7689 61.1349 98.6734 59.4399ZM97.7518 59.4495C97.747 59.6978 97.7279 59.946 97.7136 60.2468C97.1262 60.6049 96.6057 60.5285 96.0851 60.433C95.5407 59.7742 95.5216 59.0389 95.6219 58.1843C95.8464 57.9646 96.1138 57.6925 96.3478 57.4585C97.4175 57.7498 97.6801 58.0315 97.7422 58.9052C97.7565 59.0914 97.7565 59.2728 97.7518 59.4495Z" fill="#404040"/>
</svg>
