<svg width="178" height="37" viewBox="0 0 178 37" fill="none" xmlns="http://www.w3.org/2000/svg">
<path fill-rule="evenodd" clip-rule="evenodd" d="M74.1201 36.6173V28.8145H81.0067C81.8994 28.8145 82.5523 28.9318 82.9808 29.1714C83.5573 29.4876 83.8429 30.0486 83.8429 30.8646C83.8429 31.4766 83.7358 31.9152 83.5216 32.1906C83.3685 32.3844 83.0931 32.5374 82.6901 32.6547V32.6853C83.2308 32.7516 83.6083 32.9454 83.8327 33.2667C84.0266 33.5523 84.1235 33.9806 84.1235 34.5467C84.1235 35.3219 83.9092 35.8727 83.4858 36.194C83.1186 36.4745 82.537 36.6122 81.7413 36.6122H74.1201V36.6173ZM76.5075 33.5217V34.7405H80.7975C81.374 34.7405 81.6596 34.5518 81.6596 34.1693C81.6596 33.7359 81.374 33.5217 80.7975 33.5217H76.5075ZM76.5075 30.6912V31.9101H80.7414C81.2107 31.9101 81.4403 31.7112 81.4403 31.3083C81.4403 30.9003 81.2056 30.6963 80.7414 30.6963H76.5075V30.6912Z" fill="#404040"/>
<path d="M89.6225 34.4192H87.3575V36.6173H89.6225V34.4192Z" fill="#404040"/>
<path fill-rule="evenodd" clip-rule="evenodd" d="M92.8619 33.8787V31.5531C92.8619 30.4617 93.1782 29.7019 93.8108 29.2684C94.326 28.9114 95.1575 28.7278 96.3001 28.7278H99.1109C100.014 28.7278 100.687 28.7737 101.126 28.8655C101.952 29.0389 102.478 29.3908 102.707 29.9212C102.865 30.2883 102.942 30.8697 102.932 31.6653H100.539V31.4511C100.539 30.9717 100.167 30.7269 99.4169 30.7269H96.8102C96.2593 30.7269 95.8716 30.8493 95.6472 31.0941C95.4227 31.3389 95.3156 31.7367 95.3156 32.2875V33.129C95.3156 33.7053 95.3972 34.098 95.5656 34.3121C95.7594 34.562 96.1318 34.6895 96.6878 34.6895H99.2435C99.7689 34.6895 100.111 34.6487 100.269 34.562C100.519 34.4243 100.646 34.1082 100.646 33.6135H103.039V34.3478C103.039 35.2301 102.779 35.8574 102.253 36.2246C101.799 36.5408 101.105 36.6989 100.162 36.6989H96.3052C95.1728 36.6989 94.3413 36.5204 93.8159 36.1583C93.1782 35.7248 92.8619 34.9649 92.8619 33.8787Z" fill="#404040"/>
<path d="M108.543 34.4192H106.278V36.6173H108.543V34.4192Z" fill="#404040"/>
<path fill-rule="evenodd" clip-rule="evenodd" d="M0 13.4943V7.39483C0 4.5338 0.831491 2.53974 2.49447 1.41267C3.85138 0.469189 6.03468 0 9.03417 0H16.4258C18.8029 0 20.573 0.122397 21.7208 0.367192C23.8939 0.821081 25.2814 1.73906 25.8833 3.13643C26.2965 4.09521 26.4955 5.62007 26.4802 7.71103H20.1955V7.14494C20.1955 5.88527 19.211 5.25288 17.2522 5.25288H10.3962C8.94235 5.25288 7.92212 5.57417 7.33548 6.21166C6.74885 6.85425 6.45808 7.89462 6.45808 9.34299V11.5461C6.45808 13.0506 6.67743 14.0859 7.11103 14.652C7.62115 15.3099 8.60057 15.6413 10.0544 15.6413H16.7675C18.1449 15.6413 19.0427 15.5292 19.461 15.3048C20.1241 14.9478 20.4506 14.1165 20.4506 12.8211H26.7403V14.7387C26.7403 17.054 26.0517 18.6911 24.6744 19.6499C23.4858 20.476 21.6545 20.8942 19.1804 20.8942H9.03417C6.04999 20.8942 3.86669 20.425 2.48937 19.4816C0.831491 18.329 0 16.3349 0 13.4943Z" fill="#404040"/>
<path fill-rule="evenodd" clip-rule="evenodd" d="M29.4032 20.6647V0.224365H35.6929V15.4118H49.8283V20.6647H29.4032Z" fill="#404040"/>
<path d="M57.9902 0.224365H51.7004V20.6647H57.9902V0.224365Z" fill="#404040"/>
<path fill-rule="evenodd" clip-rule="evenodd" d="M61.4435 20.6647V0.224365H71.1051L78.211 13.3821L85.322 0.224365H94.9836V20.6647H88.8673V5.98723H88.8061L80.5626 20.6647H75.8644L67.621 5.98723H67.5598V20.6647H61.4435Z" fill="#404040"/>
<path fill-rule="evenodd" clip-rule="evenodd" d="M98.1002 20.6647V0.224365H116.199C118.541 0.224365 120.27 0.535459 121.382 1.15765C122.892 1.98383 123.647 3.4628 123.647 5.58945C123.647 7.19082 123.361 8.34849 122.795 9.06248C122.397 9.57247 121.673 9.97536 120.612 10.2763V10.363C122.03 10.5312 123.03 11.0412 123.616 11.8878C124.126 12.6426 124.381 13.7595 124.381 15.2486C124.381 17.2784 123.825 18.7217 122.708 19.5683C121.744 20.3026 120.214 20.6698 118.117 20.6698H98.1002V20.6647ZM104.39 12.561V15.7484H115.664C117.173 15.7484 117.928 15.2486 117.928 14.2542C117.928 13.1271 117.173 12.561 115.664 12.561H104.39ZM104.39 5.13556V8.323H115.521C116.75 8.323 117.362 7.79771 117.362 6.74203C117.362 5.67105 116.75 5.13046 115.521 5.13046H104.39V5.13556Z" fill="#404040"/>
<path fill-rule="evenodd" clip-rule="evenodd" d="M127.05 20.6647V0.224365H149.484V4.96725H133.339V8.24138H148.638V12.4794H133.339V15.7535H149.857V20.6647H127.05Z" fill="#404040"/>
<path fill-rule="evenodd" clip-rule="evenodd" d="M158.809 5.30895V10.2762H169.205C170.756 10.2762 171.526 9.56225 171.526 8.12918V7.4509C171.526 6.54822 171.251 5.94643 170.705 5.64554C170.307 5.42114 169.618 5.30895 168.639 5.30895H158.809ZM152.519 20.6647V0.224365H171.501C173.653 0.224365 175.209 0.703754 176.173 1.66253C177.158 2.62131 177.648 4.16657 177.648 6.29322V7.59369C177.648 9.04206 177.423 10.1334 176.969 10.8678C176.423 11.7144 175.48 12.2958 174.138 12.6171V12.6732C175.403 12.918 176.291 13.3974 176.801 14.1113C177.311 14.8253 177.566 15.8504 177.566 17.1866V20.6596H171.276V18.2065C171.276 17.1713 171.098 16.4369 170.736 16.0034C170.378 15.5699 169.695 15.3557 168.695 15.3557H158.809V20.6647H152.519Z" fill="#404040"/>
</svg>
