<svg width="132" height="62" viewBox="0 0 132 62" fill="none" xmlns="http://www.w3.org/2000/svg">
<path fill-rule="evenodd" clip-rule="evenodd" d="M31.5274 37.9007V42.6167C31.5274 42.6167 17.9273 42.637 17.3959 42.637C15.6345 42.637 13.4075 43.0266 11.7828 44.15C11.5297 44.3271 10.5478 45.1721 10.2896 45.6225C10.0366 46.0728 9.58103 47.2923 9.58103 47.2923H31.6438V51.634H9.42413C9.42413 51.634 10.5225 54.0122 11.2513 54.6397C11.9801 55.2672 13.448 55.9553 14.4096 56.092C15.3713 56.2286 17.2744 56.4057 19.9266 56.4057C22.5737 56.4057 31.5071 56.4057 31.5071 56.4057V61.1774C26.1471 61.1774 12.9874 62.1591 8.56368 59.7808C5.85582 58.3286 3.03154 55.93 2.16604 52.9445C1.30053 49.959 1.81174 47.6769 1.96864 46.6598C2.12555 45.6377 3.49719 42.89 4.56009 41.8678C5.61793 40.8457 7.38437 39.5908 8.72059 38.9987C10.0568 38.4117 12.7647 38.0171 14.3337 37.9766C15.9078 37.9412 31.5274 37.9007 31.5274 37.9007ZM44.682 42.4599C44.682 42.4599 55.9488 42.4599 56.5764 42.4599C57.204 42.4599 59.2843 42.4194 59.9929 43.1683C60.7015 43.9172 60.7015 45.0912 60.5041 45.6022C60.3067 46.1133 59.9929 46.3866 59.5222 46.7003C59.0514 47.014 58.601 47.1304 57.7152 47.1709C56.8345 47.2114 44.6466 47.1709 44.6466 47.1709L44.682 42.4599ZM37.3784 37.9816L37.4594 61.2432H44.758V51.8161H50.6039L59.8309 61.0408H66.7043L57.3154 51.6542C57.3154 51.6542 59.8258 51.6542 60.5749 51.5378C61.319 51.4214 62.7716 50.5966 63.713 49.9287C64.6544 49.2607 65.5554 48.0412 65.8742 47.4543C66.1881 46.8673 66.6183 44.742 66.188 42.976C65.7578 41.21 64.4216 40.0664 62.969 39.1252C61.5164 38.184 57.943 37.9867 57.943 37.9867H37.3784V37.9816ZM71.0976 37.7843H78.3962V46.6244L91.5863 37.9007H99.9275L82.7946 49.6099L100.029 61.0813H91.6875L78.4823 52.3981V61.1977H71.1027V37.7843H71.0976ZM129.967 37.7185C129.967 37.7185 114.348 37.759 112.773 37.7995C111.204 37.8399 108.497 38.2296 107.16 38.8216C105.824 39.4086 104.058 40.6686 103 41.6907C101.942 42.7129 100.565 45.4606 100.408 46.4827C100.251 47.5049 99.7403 49.7819 100.606 52.7674C101.471 55.7529 104.296 58.1515 107.003 59.6037C111.427 61.9769 124.587 61.0003 129.947 61.0003V56.2286C129.947 56.2286 121.019 56.2286 118.366 56.2286C115.719 56.2286 113.811 56.0515 112.849 55.9149C111.888 55.7782 110.415 55.0901 109.691 54.4626C108.967 53.8351 107.864 51.4569 107.864 51.4569H130.084V47.1102H108.021C108.021 47.1102 108.471 45.8907 108.729 45.4403C108.982 44.99 109.964 44.1449 110.222 43.9678C111.847 42.8445 114.074 42.4548 115.836 42.4548C116.367 42.4548 129.967 42.4346 129.967 42.4346V37.7185Z" fill="#404040"/>
<path fill-rule="evenodd" clip-rule="evenodd" d="M10.4111 24.0105C10.4111 24.0105 4.28674 24.3647 3.10743 24.051C1.92812 23.7373 -0.111638 21.7739 0.00477499 20.7872C0.121188 19.8004 3.18335 19.1376 7.69815 18.1154C12.2129 17.0933 45.1477 9.42204 50.5634 8.08615C55.9791 6.75027 59.7094 5.8951 60.0232 6.24931C60.337 6.60352 61.238 7.89893 60.5749 8.49096C59.9068 9.07794 52.0565 11.7902 51.5099 12.8933C50.9582 13.9914 50.5685 15.9952 53.6306 16.7441C56.6928 17.493 63.0145 18.0395 66.269 17.3716C69.5286 16.7036 87.3094 11.9116 94.1018 10.1001C100.894 8.29362 113.376 5.85462 115.927 4.87294C118.478 3.89127 119.773 3.22333 120.204 1.84696C120.634 0.470596 120.674 0 120.674 0L131.389 5.34354C131.389 5.34354 130.175 6.71991 126.875 7.1905C123.58 7.6611 117.729 8.56687 112.667 9.90275C107.606 11.2386 89.0252 16.3241 82.1214 19.3096C75.2126 22.29 70.47 24.9163 65.8793 27.1174C61.2886 29.3186 59.3247 30.7709 57.4014 31.0492C55.478 31.3225 53.3168 30.5381 50.8873 29.8702C48.4528 29.2022 40.9163 25.822 30.5151 24.8809C20.1138 23.9397 10.4111 24.0105 10.4111 24.0105Z" fill="#404040"/>
</svg>
